<!DOCTYPE svg PUBLIC "-//W3C//DTD SVG 20010904//EN" "http://www.w3.org/TR/2001/REC-SVG-20010904/DTD/svg10.dtd">
<svg version="1.0" xmlns="http://www.w3.org/2000/svg" width="272px" height="254px" viewBox="0 0 2720 2540" preserveAspectRatio="xMidYMid meet">
<g id="layer101" fill="#ffffff" stroke="none">
 <path d="M105 2527 c-54 -21 -95 -47 -95 -60 0 -6 11 -25 24 -42 l24 -29 41 29 c57 39 136 46 169 15 12 -11 22 -27 22 -35 0 -19 -62 -50 -129 -64 -112 -24 -161 -73 -161 -164 0 -119 131 -186 276 -142 27 8 60 24 74 34 24 19 24 20 7 55 -9 20 -21 36 -26 36 -6 0 -27 -11 -47 -25 -67 -45 -144 -42 -179 9 -38 54 0 96 107 120 91 20 137 48 161 98 31 64 -3 140 -76 167 -37 14 -154 13 -192 -2z"/>
 <path d="M2137 2526 c-50 -18 -76 -42 -98 -91 -40 -87 -12 -205 61 -253 47 -32 149 -28 198 7 65 46 93 162 58 244 -17 42 -66 83 -114 97 -47 13 -58 12 -105 -4z m94 -76 c56 -31 66 -153 15 -197 -50 -42 -107 -22 -127 46 -29 98 39 190 112 151z"/>
 <path d="M490 2520 c-50 -12 -70 -42 -70 -105 0 -93 58 -137 181 -138 32 0 59 -3 59 -7 0 -3 -9 -16 -20 -28 -29 -31 -69 -28 -120 11 -24 17 -49 36 -56 42 -15 11 -64 -29 -64 -52 0 -20 100 -81 153 -93 133 -29 209 59 210 245 0 119 -5 135 -48 135 -19 0 -38 -6 -42 -14 -7 -12 -15 -12 -63 0 -60 15 -69 16 -120 4z m140 -103 c70 -34 65 -77 -8 -77 -76 0 -143 57 -112 96 17 19 55 13 120 -19z"/>
 <path d="M827 2403 c-4 -70 -7 -152 -7 -180 l0 -53 44 0 c36 0 46 4 51 20 l6 20 26 -20 c18 -14 41 -20 78 -20 64 0 100 24 115 78 12 44 14 269 2 276 -5 3 -25 3 -45 -1 l-37 -6 0 -118 c0 -106 -2 -121 -20 -139 -27 -27 -48 -15 -89 48 -28 44 -31 56 -31 130 0 63 -3 82 -14 82 -7 0 -27 3 -43 6 l-30 6 -6 -129z"/>
 <path d="M1280 2501 c-52 -28 -82 -89 -82 -165 0 -66 15 -107 54 -143 47 -44 128 -56 193 -29 l35 15 0 -70 0 -69 39 0 c22 0 43 5 46 11 4 6 4 114 0 240 l-8 229 -37 0 c-21 0 -40 -5 -42 -11 -2 -7 -12 -7 -31 0 -44 17 -128 12 -167 -8z m136 -67 c58 -28 82 -104 48 -152 -18 -26 -64 -52 -92 -52 -31 0 -71 38 -83 80 -14 47 0 90 39 120 30 24 44 25 88 4z"/>
 <path d="M1637 2398 c-4 -66 -7 -176 -7 -244 l0 -122 41 -4 c22 -2 42 -2 45 1 2 2 4 38 4 79 0 67 2 73 18 67 9 -4 38 -10 64 -12 56 -6 127 23 157 65 64 91 34 229 -60 277 -32 17 -115 20 -153 5 -17 -6 -26 -6 -26 0 0 6 -17 10 -38 10 l-39 0 -6 -122z m236 11 c39 -42 38 -100 -2 -140 -40 -39 -82 -39 -122 0 -23 24 -29 38 -29 73 0 100 87 138 153 67z"/>
 <path d="M2422 2513 c-48 -9 -41 -26 65 -154 11 -13 4 -26 -48 -87 -33 -40 -58 -76 -55 -81 3 -5 22 -12 43 -16 35 -6 39 -4 83 46 l46 52 39 -52 c21 -28 44 -51 51 -51 19 0 74 22 74 29 0 4 -24 39 -54 77 l-54 70 53 64 c30 36 54 71 54 78 1 12 -38 32 -64 32 -7 0 -31 -22 -52 -50 -21 -27 -41 -49 -45 -50 -3 0 -23 23 -43 50 -36 49 -44 52 -93 43z"/>
 <path d="M1760 1951 c-18 -34 -12 -62 58 -271 92 -276 113 -312 205 -373 63 -41 112 -58 191 -66 l59 -6 114 -340 c146 -439 139 -422 175 -441 60 -31 128 13 128 83 0 18 -54 196 -119 394 l-120 361 53 52 c76 74 107 145 113 254 5 80 2 95 -31 191 -19 57 -37 106 -40 108 -2 2 -27 -10 -55 -28 -85 -52 -175 -79 -266 -79 -128 0 -225 33 -358 121 -49 33 -90 59 -92 59 -2 0 -9 -9 -15 -19z"/>
 <path d="M429 1901 l-29 -29 0 -556 0 -556 -70 0 c-74 0 -123 -17 -134 -45 -3 -9 -6 -164 -6 -344 l0 -328 23 -21 c20 -19 35 -22 103 -22 71 0 83 3 102 23 19 20 22 35 22 100 l0 77 94 0 94 0 4 -74 c3 -62 7 -79 27 -100 22 -24 31 -26 106 -26 72 0 84 3 103 23 19 20 22 35 22 100 l0 77 105 0 105 0 0 -75 c0 -67 3 -79 25 -100 22 -23 32 -25 107 -25 52 1 89 5 100 14 26 19 38 60 38 127 l0 59 100 0 100 0 0 -75 c0 -67 3 -79 25 -100 22 -22 32 -25 105 -25 73 0 83 3 105 25 22 21 25 33 25 100 l0 75 95 0 95 0 0 -75 c0 -67 3 -79 25 -100 22 -22 32 -25 105 -25 73 0 83 3 105 25 l25 24 0 325 0 325 -24 28 c-23 26 -31 28 -110 32 l-86 3 -2 180 -3 181 -45 11 c-90 23 -166 89 -216 188 -35 69 -194 544 -194 580 l0 28 -571 0 -571 0 -29 -29z m361 -157 c58 -35 78 -110 46 -172 -20 -40 -63 -62 -117 -62 -35 0 -48 6 -80 39 -34 34 -39 44 -39 86 0 42 5 52 39 86 33 33 45 39 81 39 23 0 54 -7 70 -16z m-82 -390 c47 -53 9 -133 -64 -134 -58 0 -101 69 -73 119 31 55 95 62 137 15z"/>
 </g>

</svg>